<svg xmlns="http://www.w3.org/2000/svg" version="1.1" xmlns:xlink="http://www.w3.org/1999/xlink" width="1000" height="1000"><g clip-path="url(#SvgjsClipPath1037)"><rect width="1000" height="1000" fill="#000000"></rect><g transform="matrix(6.88560763183518,0,0,6.88560763183518,114.91550758198571,100)"><svg xmlns="http://www.w3.org/2000/svg" version="1.1" xmlns:xlink="http://www.w3.org/1999/xlink" width="111.852" height="116.184372211575"><svg style="max-height: 500px" xmlns="http://www.w3.org/2000/svg" xmlns:xlink="http://www.w3.org/1999/xlink" zoomAndPan="magnify" viewBox="15.750000000000002 121.49999708400001 111.852 116.184372211575" preserveAspectRatio="xMidYMid meet" version="1.0" width="111.852" height="116.184372211575"><defs><g></g><clipPath id="96260d840b"><path d="M 19 127 L 122 127 L 122 233 L 19 233 Z M 19 127" clip-rule="nonzero"></path></clipPath><clipPath id="2fd81dae10"><path d="M 45.90625 111.433594 L 139.03125 154.859375 L 96.238281 246.625 L 3.113281 203.195312 Z M 45.90625 111.433594" clip-rule="nonzero"></path></clipPath><clipPath id="2cbe166b14"><path d="M 45.90625 111.433594 L 139.03125 154.859375 L 96.238281 246.625 L 3.113281 203.195312 Z M 45.90625 111.433594" clip-rule="nonzero"></path></clipPath><clipPath id="5e82bc69a2"><path d="M 45.976562 111.46875 L 139.132812 154.910156 L 96.492188 246.347656 L 3.335938 202.90625 Z M 45.976562 111.46875" clip-rule="nonzero"></path></clipPath><clipPath id="SvgjsClipPath1037"><rect width="1000" height="1000" x="0" y="0" rx="350" ry="350"></rect></clipPath></defs><g clip-path="url(#96260d840b)"><g clip-path="url(#2fd81dae10)"><g clip-path="url(#2cbe166b14)"><g clip-path="url(#5e82bc69a2)"><path fill="#ffffff" d="M 117.226562 201.859375 C 128.804688 175.699219 117.167969 144.664062 91.246094 132.574219 C 68.582031 122.007812 42.5 129.378906 28.550781 148.839844 C 32.105469 144.902344 37.632812 140.28125 45.347656 137.785156 C 60.480469 132.863281 68.96875 135.53125 68.96875 135.53125 C 39.054688 136.976562 18.914062 164.070312 19.230469 185.996094 C 20.550781 196.34375 24.917969 206.203125 31.796875 214.167969 C 33.957031 215.890625 36.269531 217.085938 37.738281 213.78125 L 37.757812 213.789062 C 38.90625 207.488281 40.65625 195.222656 39.75 192.960938 C 38.5625 190.015625 33.316406 188.863281 32.519531 185.597656 C 31.734375 182.3125 38.757812 148.839844 38.757812 148.839844 C 38.757812 148.839844 39.726562 148.40625 40.253906 148.964844 C 40.765625 149.5625 36.035156 180.113281 36.535156 181.085938 C 37.039062 182.0625 37.066406 181.644531 37.507812 181.875 C 37.886719 181.929688 38.386719 182.09375 39.070312 180.882812 C 39.765625 179.652344 42.757812 150.464844 42.929688 150.042969 C 43.09375 149.59375 43.609375 148.234375 44.507812 148.867188 C 45.414062 149.484375 42.476562 179.933594 42.746094 180.847656 C 43.03125 181.769531 43.4375 181.769531 43.886719 181.933594 C 44.292969 181.832031 44.558594 181.933594 44.941406 181.109375 C 45.335938 180.3125 47.195312 149.714844 48.171875 149.261719 C 49.160156 148.789062 49.46875 150.226562 49.558594 150.699219 C 49.652344 151.171875 48.066406 180.511719 48.558594 181.816406 C 49.03125 183.109375 49.511719 183.050781 49.882812 183.078125 C 50.402344 182.9375 50.382812 183.335938 51.046875 182.472656 C 51.703125 181.582031 51.769531 150.628906 52.355469 150.136719 C 52.953125 149.675781 53.863281 150.289062 53.863281 150.289062 C 53.863281 150.289062 55.503906 184.550781 54.242188 187.621094 C 52.96875 190.710938 47.40625 191.199219 45.816406 193.902344 C 44.5625 195.972656 44.222656 210.132812 44.347656 217.554688 C 44.445312 218.988281 44.78125 221.035156 45.902344 222.273438 C 47.769531 224.363281 49.152344 223.863281 50.269531 221.515625 L 62.929688 195.089844 C 63.25 194.140625 63.507812 193.183594 63.496094 192.390625 C 63.460938 191.539062 63.199219 190.769531 62.890625 190.195312 C 58.980469 186.484375 57.679688 180.402344 61.25 172.335938 C 65.800781 162.121094 76.453125 152.550781 83.03125 155.621094 C 89.613281 158.6875 89.601562 173.21875 85.070312 183.445312 C 81.710938 191.058594 76.785156 194.140625 71.789062 193.988281 C 71.09375 194.1875 70.117188 194.546875 69.328125 195.160156 C 68.789062 195.601562 68.183594 196.539062 67.6875 197.5 L 56.644531 223.839844 L 56.664062 223.851562 C 56.664062 223.851562 56.289062 226.808594 57.722656 227.378906 C 58.445312 227.667969 59.332031 227.003906 60.019531 226.300781 L 60 226.289062 C 60 226.289062 60.261719 225.980469 60.75 225.445312 C 61.003906 225.109375 61.160156 224.871094 61.160156 224.871094 L 61.210938 224.917969 C 67.417969 217.914062 95.386719 186.296875 97.878906 183.105469 C 100.699219 179.519531 107.496094 171.5 109.503906 174.324219 C 111.511719 177.148438 107.179688 189.257812 99.632812 201.183594 C 92.066406 213.101562 85.574219 219.230469 81.035156 220.964844 C 76.488281 222.667969 73.902344 218.882812 70.636719 222.140625 C 68.429688 224.363281 66.371094 227.035156 65.257812 228.550781 C 65.097656 229.144531 64.886719 230.574219 66.089844 231.378906 C 66.703125 231.808594 67.542969 232.007812 68.300781 232.121094 C 68.941406 232.132812 69.589844 232.171875 70.242188 232.164062 C 89.898438 232.414062 108.679688 221.160156 117.226562 201.859375" fill-opacity="1" fill-rule="evenodd"></path></g></g></g></g><g fill="#ffffff" fill-opacity="1"><g transform="translate(140.705021, 199.4203)"><g><path d="M 60.734375 -10.609375 C 60.910156 -9.304688 61.265625 -8.265625 61.796875 -7.484375 C 62.335938 -6.703125 62.921875 -6.050781 63.546875 -5.53125 C 64.171875 -5.019531 64.71875 -4.53125 65.1875 -4.0625 C 65.664062 -3.59375 65.925781 -3.019531 65.96875 -2.34375 C 65.96875 -1.71875 65.460938 -1.238281 64.453125 -0.90625 C 63.453125 -0.570312 62.242188 -0.328125 60.828125 -0.171875 C 59.421875 -0.015625 58.09375 0.0820312 56.84375 0.125 C 55.59375 0.175781 54.71875 0.203125 54.21875 0.203125 C 53.726562 0.203125 52.84375 0.175781 51.5625 0.125 C 50.289062 0.0820312 48.925781 -0.0234375 47.46875 -0.203125 C 46.019531 -0.378906 44.75 -0.632812 43.65625 -0.96875 C 42.5625 -1.300781 41.921875 -1.757812 41.734375 -2.34375 C 41.554688 -3.019531 41.632812 -3.601562 41.96875 -4.09375 C 42.3125 -4.582031 42.75 -5.082031 43.28125 -5.59375 C 43.820312 -6.113281 44.269531 -6.765625 44.625 -7.546875 C 44.988281 -8.328125 45.101562 -9.347656 44.96875 -10.609375 L 42.546875 -29.59375 L 34.421875 -4.703125 C 34.109375 -3.804688 33.570312 -3.078125 32.8125 -2.515625 C 32.050781 -1.953125 31.179688 -1.671875 30.203125 -1.671875 L 27.375 -1.671875 C 26.4375 -1.671875 25.585938 -1.9375 24.828125 -2.46875 C 24.066406 -3.007812 23.53125 -3.707031 23.21875 -4.5625 L 14.421875 -28.71875 C 14.242188 -27.15625 14.03125 -25.421875 13.78125 -23.515625 C 13.539062 -21.617188 13.304688 -19.773438 13.078125 -17.984375 C 12.859375 -16.191406 12.671875 -14.613281 12.515625 -13.25 C 12.359375 -11.882812 12.234375 -10.9375 12.140625 -10.40625 C 11.960938 -9.101562 12.117188 -8.070312 12.609375 -7.3125 C 13.109375 -6.550781 13.691406 -5.9375 14.359375 -5.46875 C 15.035156 -5 15.617188 -4.53125 16.109375 -4.0625 C 16.597656 -3.59375 16.773438 -3.019531 16.640625 -2.34375 C 16.503906 -1.71875 16.113281 -1.238281 15.46875 -0.90625 C 14.820312 -0.570312 14.0625 -0.328125 13.1875 -0.171875 C 12.3125 -0.015625 11.457031 0.0703125 10.625 0.09375 C 9.800781 0.125 9.144531 0.140625 8.65625 0.140625 C 8.03125 0.140625 7.132812 0.0820312 5.96875 -0.03125 C 4.8125 -0.144531 3.757812 -0.390625 2.8125 -0.765625 C 1.875 -1.148438 1.382812 -1.722656 1.34375 -2.484375 C 1.300781 -3.148438 1.503906 -3.707031 1.953125 -4.15625 C 2.398438 -4.601562 2.921875 -5.070312 3.515625 -5.5625 C 4.117188 -6.0625 4.691406 -6.675781 5.234375 -7.40625 C 5.773438 -8.144531 6.109375 -9.144531 6.234375 -10.40625 L 9.1875 -33.625 C 9.320312 -34.875 9.1875 -35.890625 8.78125 -36.671875 C 8.382812 -37.453125 7.894531 -38.097656 7.3125 -38.609375 C 6.726562 -39.128906 6.242188 -39.625 5.859375 -40.09375 C 5.484375 -40.5625 5.382812 -41.132812 5.5625 -41.8125 C 5.75 -42.394531 6.378906 -42.851562 7.453125 -43.1875 C 8.523438 -43.519531 9.765625 -43.765625 11.171875 -43.921875 C 12.578125 -44.078125 13.882812 -44.175781 15.09375 -44.21875 C 16.300781 -44.269531 17.15625 -44.296875 17.65625 -44.296875 C 18.226562 -44.296875 19.070312 -44.257812 20.1875 -44.1875 C 21.3125 -44.125 22.390625 -43.957031 23.421875 -43.6875 C 24.453125 -43.414062 25.125 -42.988281 25.4375 -42.40625 L 33.625 -20 L 41 -42.21875 L 41.078125 -42.21875 C 41.335938 -42.882812 41.957031 -43.363281 42.9375 -43.65625 C 43.925781 -43.945312 44.96875 -44.132812 46.0625 -44.21875 C 47.164062 -44.3125 48.007812 -44.359375 48.59375 -44.359375 C 49.082031 -44.359375 49.960938 -44.332031 51.234375 -44.28125 C 52.515625 -44.238281 53.867188 -44.140625 55.296875 -43.984375 C 56.734375 -43.828125 58 -43.570312 59.09375 -43.21875 C 60.1875 -42.863281 60.800781 -42.367188 60.9375 -41.734375 C 61.070312 -41.066406 60.96875 -40.5 60.625 -40.03125 C 60.289062 -39.5625 59.867188 -39.066406 59.359375 -38.546875 C 58.847656 -38.035156 58.421875 -37.398438 58.078125 -36.640625 C 57.742188 -35.878906 57.644531 -34.847656 57.78125 -33.546875 C 57.875 -32.972656 58.019531 -31.910156 58.21875 -30.359375 C 58.414062 -28.816406 58.632812 -27.050781 58.875 -25.0625 C 59.125 -23.070312 59.375 -21.082031 59.625 -19.09375 C 59.875 -17.101562 60.097656 -15.332031 60.296875 -13.78125 C 60.492188 -12.238281 60.640625 -11.179688 60.734375 -10.609375 Z M 60.734375 -10.609375"></path></g></g></g><g fill="#ffffff" fill-opacity="1"><g transform="translate(204.786941, 199.4203)"><g><path d="M 50.734375 -41.734375 C 50.828125 -41.066406 50.648438 -40.5 50.203125 -40.03125 C 49.753906 -39.5625 49.210938 -39.066406 48.578125 -38.546875 C 47.953125 -38.035156 47.40625 -37.390625 46.9375 -36.609375 C 46.46875 -35.828125 46.234375 -34.765625 46.234375 -33.421875 C 46.234375 -32.703125 46.222656 -30.910156 46.203125 -28.046875 C 46.179688 -25.179688 46.171875 -21.601562 46.171875 -17.3125 C 46.171875 -12.707031 45.382812 -9.039062 43.8125 -6.3125 C 42.25 -3.582031 40.015625 -1.625 37.109375 -0.4375 C 34.203125 0.75 30.734375 1.34375 26.703125 1.34375 C 23.972656 1.34375 21.34375 1.015625 18.8125 0.359375 C 16.289062 -0.285156 14.046875 -1.3125 12.078125 -2.71875 C 10.109375 -4.125 8.539062 -5.945312 7.375 -8.1875 C 6.21875 -10.425781 5.640625 -13.132812 5.640625 -16.3125 C 5.640625 -19.488281 5.640625 -22.375 5.640625 -24.96875 C 5.640625 -27.5625 5.640625 -29.617188 5.640625 -31.140625 C 5.640625 -32.660156 5.640625 -33.421875 5.640625 -33.421875 C 5.640625 -34.710938 5.40625 -35.75 4.9375 -36.53125 C 4.46875 -37.320312 3.929688 -37.972656 3.328125 -38.484375 C 2.722656 -39.003906 2.21875 -39.507812 1.8125 -40 C 1.40625 -40.488281 1.25 -41.066406 1.34375 -41.734375 C 1.425781 -42.316406 2.003906 -42.785156 3.078125 -43.140625 C 4.160156 -43.503906 5.425781 -43.773438 6.875 -43.953125 C 8.332031 -44.128906 9.6875 -44.238281 10.9375 -44.28125 C 12.1875 -44.332031 13.0625 -44.359375 13.5625 -44.359375 C 14.050781 -44.359375 14.921875 -44.332031 16.171875 -44.28125 C 17.421875 -44.238281 18.757812 -44.140625 20.1875 -43.984375 C 21.625 -43.828125 22.878906 -43.570312 23.953125 -43.21875 C 25.023438 -42.863281 25.585938 -42.367188 25.640625 -41.734375 C 25.679688 -41.023438 25.488281 -40.4375 25.0625 -39.96875 C 24.632812 -39.5 24.140625 -39.003906 23.578125 -38.484375 C 23.023438 -37.972656 22.523438 -37.320312 22.078125 -36.53125 C 21.628906 -35.75 21.40625 -34.710938 21.40625 -33.421875 C 21.40625 -33.109375 21.40625 -32.378906 21.40625 -31.234375 C 21.40625 -30.097656 21.40625 -28.742188 21.40625 -27.171875 C 21.40625 -25.609375 21.40625 -24 21.40625 -22.34375 C 21.40625 -20.6875 21.40625 -19.140625 21.40625 -17.703125 C 21.40625 -16.273438 21.40625 -15.179688 21.40625 -14.421875 C 21.40625 -11.742188 21.851562 -9.597656 22.75 -7.984375 C 23.644531 -6.367188 24.796875 -5.210938 26.203125 -4.515625 C 27.609375 -3.828125 29.097656 -3.484375 30.671875 -3.484375 C 32.328125 -3.484375 33.859375 -3.882812 35.265625 -4.6875 C 36.671875 -5.5 37.8125 -6.8125 38.6875 -8.625 C 39.5625 -10.4375 40 -12.863281 40 -15.90625 L 40 -33.421875 C 40 -34.710938 39.75 -35.75 39.25 -36.53125 C 38.757812 -37.320312 38.191406 -37.972656 37.546875 -38.484375 C 36.898438 -39.003906 36.351562 -39.507812 35.90625 -40 C 35.457031 -40.488281 35.300781 -41.066406 35.4375 -41.734375 C 35.570312 -42.546875 36.140625 -43.128906 37.140625 -43.484375 C 38.148438 -43.847656 39.25 -44.082031 40.4375 -44.1875 C 41.625 -44.300781 42.53125 -44.359375 43.15625 -44.359375 C 43.644531 -44.359375 44.289062 -44.332031 45.09375 -44.28125 C 45.90625 -44.238281 46.734375 -44.140625 47.578125 -43.984375 C 48.429688 -43.828125 49.160156 -43.570312 49.765625 -43.21875 C 50.367188 -42.863281 50.691406 -42.367188 50.734375 -41.734375 Z M 50.734375 -41.734375"></path></g></g></g><g fill="#ffffff" fill-opacity="1"><g transform="translate(253.703919, 199.4203)"><g><path d="M 60.734375 -10.609375 C 60.910156 -9.304688 61.265625 -8.265625 61.796875 -7.484375 C 62.335938 -6.703125 62.921875 -6.050781 63.546875 -5.53125 C 64.171875 -5.019531 64.71875 -4.53125 65.1875 -4.0625 C 65.664062 -3.59375 65.925781 -3.019531 65.96875 -2.34375 C 65.96875 -1.71875 65.460938 -1.238281 64.453125 -0.90625 C 63.453125 -0.570312 62.242188 -0.328125 60.828125 -0.171875 C 59.421875 -0.015625 58.09375 0.0820312 56.84375 0.125 C 55.59375 0.175781 54.71875 0.203125 54.21875 0.203125 C 53.726562 0.203125 52.84375 0.175781 51.5625 0.125 C 50.289062 0.0820312 48.925781 -0.0234375 47.46875 -0.203125 C 46.019531 -0.378906 44.75 -0.632812 43.65625 -0.96875 C 42.5625 -1.300781 41.921875 -1.757812 41.734375 -2.34375 C 41.554688 -3.019531 41.632812 -3.601562 41.96875 -4.09375 C 42.3125 -4.582031 42.75 -5.082031 43.28125 -5.59375 C 43.820312 -6.113281 44.269531 -6.765625 44.625 -7.546875 C 44.988281 -8.328125 45.101562 -9.347656 44.96875 -10.609375 L 42.546875 -29.59375 L 34.421875 -4.703125 C 34.109375 -3.804688 33.570312 -3.078125 32.8125 -2.515625 C 32.050781 -1.953125 31.179688 -1.671875 30.203125 -1.671875 L 27.375 -1.671875 C 26.4375 -1.671875 25.585938 -1.9375 24.828125 -2.46875 C 24.066406 -3.007812 23.53125 -3.707031 23.21875 -4.5625 L 14.421875 -28.71875 C 14.242188 -27.15625 14.03125 -25.421875 13.78125 -23.515625 C 13.539062 -21.617188 13.304688 -19.773438 13.078125 -17.984375 C 12.859375 -16.191406 12.671875 -14.613281 12.515625 -13.25 C 12.359375 -11.882812 12.234375 -10.9375 12.140625 -10.40625 C 11.960938 -9.101562 12.117188 -8.070312 12.609375 -7.3125 C 13.109375 -6.550781 13.691406 -5.9375 14.359375 -5.46875 C 15.035156 -5 15.617188 -4.53125 16.109375 -4.0625 C 16.597656 -3.59375 16.773438 -3.019531 16.640625 -2.34375 C 16.503906 -1.71875 16.113281 -1.238281 15.46875 -0.90625 C 14.820312 -0.570312 14.0625 -0.328125 13.1875 -0.171875 C 12.3125 -0.015625 11.457031 0.0703125 10.625 0.09375 C 9.800781 0.125 9.144531 0.140625 8.65625 0.140625 C 8.03125 0.140625 7.132812 0.0820312 5.96875 -0.03125 C 4.8125 -0.144531 3.757812 -0.390625 2.8125 -0.765625 C 1.875 -1.148438 1.382812 -1.722656 1.34375 -2.484375 C 1.300781 -3.148438 1.503906 -3.707031 1.953125 -4.15625 C 2.398438 -4.601562 2.921875 -5.070312 3.515625 -5.5625 C 4.117188 -6.0625 4.691406 -6.675781 5.234375 -7.40625 C 5.773438 -8.144531 6.109375 -9.144531 6.234375 -10.40625 L 9.1875 -33.625 C 9.320312 -34.875 9.1875 -35.890625 8.78125 -36.671875 C 8.382812 -37.453125 7.894531 -38.097656 7.3125 -38.609375 C 6.726562 -39.128906 6.242188 -39.625 5.859375 -40.09375 C 5.484375 -40.5625 5.382812 -41.132812 5.5625 -41.8125 C 5.75 -42.394531 6.378906 -42.851562 7.453125 -43.1875 C 8.523438 -43.519531 9.765625 -43.765625 11.171875 -43.921875 C 12.578125 -44.078125 13.882812 -44.175781 15.09375 -44.21875 C 16.300781 -44.269531 17.15625 -44.296875 17.65625 -44.296875 C 18.226562 -44.296875 19.070312 -44.257812 20.1875 -44.1875 C 21.3125 -44.125 22.390625 -43.957031 23.421875 -43.6875 C 24.453125 -43.414062 25.125 -42.988281 25.4375 -42.40625 L 33.625 -20 L 41 -42.21875 L 41.078125 -42.21875 C 41.335938 -42.882812 41.957031 -43.363281 42.9375 -43.65625 C 43.925781 -43.945312 44.96875 -44.132812 46.0625 -44.21875 C 47.164062 -44.3125 48.007812 -44.359375 48.59375 -44.359375 C 49.082031 -44.359375 49.960938 -44.332031 51.234375 -44.28125 C 52.515625 -44.238281 53.867188 -44.140625 55.296875 -43.984375 C 56.734375 -43.828125 58 -43.570312 59.09375 -43.21875 C 60.1875 -42.863281 60.800781 -42.367188 60.9375 -41.734375 C 61.070312 -41.066406 60.96875 -40.5 60.625 -40.03125 C 60.289062 -39.5625 59.867188 -39.066406 59.359375 -38.546875 C 58.847656 -38.035156 58.421875 -37.398438 58.078125 -36.640625 C 57.742188 -35.878906 57.644531 -34.847656 57.78125 -33.546875 C 57.875 -32.972656 58.019531 -31.910156 58.21875 -30.359375 C 58.414062 -28.816406 58.632812 -27.050781 58.875 -25.0625 C 59.125 -23.070312 59.375 -21.082031 59.625 -19.09375 C 59.875 -17.101562 60.097656 -15.332031 60.296875 -13.78125 C 60.492188 -12.238281 60.640625 -11.179688 60.734375 -10.609375 Z M 60.734375 -10.609375"></path></g></g></g><g fill="#ffffff" fill-opacity="1"><g transform="translate(321.006756, 199.4203)"><g><path d="M 47.046875 -13.359375 C 47.222656 -10.085938 46.378906 -7.367188 44.515625 -5.203125 C 42.660156 -3.035156 40.046875 -1.390625 36.671875 -0.265625 C 33.296875 0.847656 29.414062 1.40625 25.03125 1.40625 C 23.15625 1.40625 20.992188 1.222656 18.546875 0.859375 C 16.109375 0.503906 13.679688 -0.0820312 11.265625 -0.90625 C 8.859375 -1.726562 6.75 -2.832031 4.9375 -4.21875 C 3.125 -5.613281 1.90625 -7.335938 1.28125 -9.390625 C 0.78125 -11.222656 0.941406 -12.898438 1.765625 -14.421875 C 2.597656 -15.941406 4 -16.863281 5.96875 -17.1875 C 6.28125 -17.226562 6.570312 -17.257812 6.84375 -17.28125 C 7.113281 -17.300781 7.382812 -17.3125 7.65625 -17.3125 C 9.570312 -17.3125 11.144531 -16.695312 12.375 -15.46875 C 13.613281 -14.238281 14.453125 -12.460938 14.890625 -10.140625 C 15.390625 -7.410156 16.476562 -5.394531 18.15625 -4.09375 C 19.832031 -2.789062 22.015625 -2.140625 24.703125 -2.140625 C 26.671875 -2.140625 28.191406 -2.578125 29.265625 -3.453125 C 30.335938 -4.328125 30.941406 -5.320312 31.078125 -6.4375 C 31.203125 -7.644531 30.941406 -8.726562 30.296875 -9.6875 C 29.648438 -10.65625 28.800781 -11.484375 27.75 -12.171875 C 26.695312 -12.867188 25.65625 -13.453125 24.625 -13.921875 C 23.59375 -14.390625 22.765625 -14.78125 22.140625 -15.09375 C 21.742188 -15.320312 21.03125 -15.691406 20 -16.203125 C 18.96875 -16.722656 17.847656 -17.285156 16.640625 -17.890625 C 15.429688 -18.492188 14.359375 -19.019531 13.421875 -19.46875 C 12.390625 -19.957031 11.210938 -20.601562 9.890625 -21.40625 C 8.578125 -22.207031 7.328125 -23.191406 6.140625 -24.359375 C 4.953125 -25.523438 4.035156 -26.910156 3.390625 -28.515625 C 2.742188 -30.128906 2.578125 -31.988281 2.890625 -34.09375 C 3.242188 -36.238281 4.269531 -38.171875 5.96875 -39.890625 C 7.664062 -41.617188 9.9375 -42.984375 12.78125 -43.984375 C 15.625 -44.992188 18.992188 -45.5 22.890625 -45.5 C 23.335938 -45.5 23.796875 -45.5 24.265625 -45.5 C 24.734375 -45.5 25.191406 -45.476562 25.640625 -45.4375 C 29.128906 -45.207031 32.113281 -44.585938 34.59375 -43.578125 C 37.070312 -42.578125 39.0625 -41.367188 40.5625 -39.953125 C 42.0625 -38.546875 43.015625 -37.109375 43.421875 -35.640625 C 43.734375 -34.648438 43.753906 -33.640625 43.484375 -32.609375 C 43.210938 -31.585938 42.6875 -30.726562 41.90625 -30.03125 C 41.125 -29.332031 40.0625 -28.984375 38.71875 -28.984375 C 38.5 -28.984375 38.265625 -28.992188 38.015625 -29.015625 C 37.765625 -29.046875 37.53125 -29.082031 37.3125 -29.125 C 35.75 -29.394531 34.53125 -30.054688 33.65625 -31.109375 C 32.78125 -32.160156 32.117188 -33.332031 31.671875 -34.625 C 31.222656 -35.925781 30.820312 -37.046875 30.46875 -37.984375 C 29.976562 -39.460938 29.179688 -40.546875 28.078125 -41.234375 C 26.984375 -41.929688 25.695312 -42.300781 24.21875 -42.34375 C 22.96875 -42.34375 21.769531 -42.082031 20.625 -41.5625 C 19.488281 -41.050781 18.8125 -40.082031 18.59375 -38.65625 C 18.414062 -37.21875 18.769531 -36.03125 19.65625 -35.09375 C 20.550781 -34.15625 21.691406 -33.285156 23.078125 -32.484375 C 23.484375 -32.210938 24.144531 -31.816406 25.0625 -31.296875 C 25.976562 -30.785156 27.039062 -30.191406 28.25 -29.515625 C 29.457031 -28.847656 30.6875 -28.191406 31.9375 -27.546875 C 33.195312 -26.898438 34.316406 -26.304688 35.296875 -25.765625 C 36.859375 -24.960938 38.523438 -23.988281 40.296875 -22.84375 C 42.066406 -21.707031 43.597656 -20.367188 44.890625 -18.828125 C 46.191406 -17.285156 46.910156 -15.460938 47.046875 -13.359375 Z M 47.046875 -13.359375"></path></g></g></g></svg></svg></g></g></svg>